<svg enable-background="new 0 0 966 315.5" viewBox="0 0 966 315.5" xmlns="http://www.w3.org/2000/svg"><path d="m158.5 315.5c-19.4 0-37.4-10.4-47.1-27.3-2.5-4.4-4.5-9.2-5.7-14.3-.1-.3-.3-.6-.6-.7-7.2-2.9-14.1-6.4-20.6-10.3-.2-.1-.3-.3-.4-.5-9.6-24.9-12.1-52-7.1-78.2.1-.4.3-.7.7-.8h.2c.4 0 .7.1.8.3 13.4 14.4 29.2 25.7 47.2 33.6.1.1.3.1.4.1.2 0 .4-.1.6-.2 1.6-1.1 3.1-2.1 4.6-3 8.2-4.7 17.5-7.2 26.8-7.2 16.6 0 32.5 7.8 42.7 20.8.2.2.5.4.8.4h.1c4.9-.7 10-1.6 14.9-2.8 29.2-7 56.1-23.5 75.7-46.5.2-.2.5-.4.8-.4.2 0 .3 0 .5.1.4.2.6.7.5 1.2-11.7 41.8-42.6 76.6-82.7 93.1-.3.1-.5.4-.6.7-3.4 14.6-12.8 27.2-25.7 34.6-8.1 4.8-17.4 7.3-26.8 7.3zm-101.1-74.3c-.3 0-.5-.1-.7-.3-26.1-26.6-40.5-61.8-40.5-99.1 0-6.2.4-12.6 1.3-18.9 0-.3-.1-.7-.3-.9-11-10.3-17.2-24.7-17.2-39.6.1-29.8 24.4-54.1 54.2-54.1 5.2 0 10.3.8 15.3 2.2h.3c.2 0 .4-.1.6-.2 6.2-4.9 12.6-9.2 19.3-12.9.1-.1.3-.1.5-.1 26.7 4.2 51.4 15.6 71.7 33.1.3.3.4.6.3 1s-.4.7-.8.7c-19.2 4.4-37 12.5-52.8 24.1-.3.2-.4.6-.4.9.2 1.9.3 3.7.3 5.5-.1 26.8-20.1 49.8-46.6 53.5-.4 0-.7.3-.8.6-1.9 4.7-3.6 9.5-5 14.3-8.5 28.8-7.7 60.3 2.4 88.7.2.5 0 .9-.4 1.2-.4.2-.6.3-.7.3zm177.4-50.5c-.3 0-.5-.1-.7-.3-.3-.3-.4-.7-.3-1 5.7-18.5 7.6-37.7 5.6-56.9 0-.4-.3-.7-.6-.8-19-8.8-31.4-28.1-31.4-49 0-7.1 1.3-14.1 4-20.6.1-.3.1-.7-.1-1-3.2-4.1-6.7-8.2-10.4-12.2-20.5-21.9-48.3-36.9-77.9-42.4-.5-.1-.8-.5-.8-1s.3-.9.8-1c11.5-3 23.3-4.5 35-4.5 32.1 0 62.4 10.5 87.6 30.4.2.1.4.2.6.2h.3c4.7-1.5 9.9-2.2 15.1-2.2 29.9 0 54.2 24.2 54.3 54.1 0 14.9-6.2 29.3-17.1 39.6-.2.2-.4.5-.3.9.9 6.4 1.3 12.7 1.3 18.9 0 .6 0 1.2-.1 1.8l-.1 1.1c0 .2-.1.4-.2.6-16.8 20.8-39 36.5-64.2 45.4z" fill="#ff6c0c"/><path d="m451.3 102.3c-10.6 0-21.3 2.2-30 5.6v-79.7h-60.6v245.4h60.6v-121.9c3.4-1.6 8.1-2.5 12.8-2.5 12.8 0 18.4 6.3 18.4 17.8v106.6h60.6v-113.1c.1-37.5-21.1-58.2-61.8-58.2zm178 124.8c-2.5.9-7.2 1.6-12.8 1.6-11.3 0-17.2-4.7-17.2-15.3v-108.3h-60.6v106.6c0 47.2 25.9 66 77.8 66 28.1 0 57.2-5 73.5-12.5v-160.1h-60.6v122zm183.2-121c-4.4-1.3-11.9-2.5-17.8-2.5-52.8 0-79.7 33.5-79.7 85.7 0 57.8 30.9 88.5 88.5 88.5 29.7 0 55.3-5.3 69.7-12.5v-237h-60.6v77.8zm0 123.5c-2.2.9-6.3 1.2-10.3 1.2-17.2 0-26.6-13.4-26.6-42.2 0-24.4 9.1-40.3 25.9-40.3 4.4 0 9.1.9 10.9 1.9v79.4zm92.8-201.4v245.4h60.7v-245.4z" fill="#fff"/></svg>